<svg width="80" height="80" viewBox="0 0 80 80" fill="none" xmlns="http://www.w3.org/2000/svg">
<path d="M23.6364 6.36364C23.6364 2.85091 26.4873 0 30 0H50C53.5127 0 56.3636 2.85091 56.3636 6.36364V14.5455H73.6364C77.1491 14.5455 80 17.3964 80 20.9091V73.6364C80 75.3241 79.3295 76.9427 78.1361 78.1361C76.9427 79.3295 75.3241 80 73.6364 80H6.36364C4.6759 80 3.05728 79.3295 1.86387 78.1361C0.670453 76.9427 0 75.3241 0 73.6364V20.9091C0 17.3964 2.85091 14.5455 6.36364 14.5455H23.6364V6.36364ZM5.45455 43.6V73.6364C5.45455 74.1382 5.86182 74.5455 6.36364 74.5455H73.6364C73.8775 74.5455 74.1087 74.4497 74.2792 74.2792C74.4497 74.1087 74.5455 73.8775 74.5455 73.6364V43.6C71.7552 45.9749 68.2096 47.2771 64.5455 47.2727H15.4545C11.7904 47.2771 8.24481 45.9749 5.45455 43.6ZM74.5455 31.8182V20.9091C74.5455 20.668 74.4497 20.4368 74.2792 20.2663C74.1087 20.0958 73.8775 20 73.6364 20H6.36364C6.12253 20 5.8913 20.0958 5.72081 20.2663C5.55032 20.4368 5.45455 20.668 5.45455 20.9091V31.8182C5.45455 34.4703 6.50811 37.0139 8.38348 38.8893C10.2588 40.7646 12.8024 41.8182 15.4545 41.8182H64.5455C67.1976 41.8182 69.7412 40.7646 71.6165 38.8893C73.4919 37.0139 74.5455 34.4703 74.5455 31.8182ZM50.9091 6.36364C50.9091 6.12253 50.8133 5.8913 50.6428 5.72081C50.4723 5.55032 50.2411 5.45455 50 5.45455H30C29.7589 5.45455 29.5277 5.55032 29.3572 5.72081C29.1867 5.8913 29.0909 6.12253 29.0909 6.36364V14.5455H50.9091V6.36364Z" fill="white"/>
</svg>
