<svg width="86" height="91" viewBox="0 0 86 91" fill="none" xmlns="http://www.w3.org/2000/svg">
<path d="M82.7782 30.5861C83.3087 32.0267 82.8611 33.6328 81.7173 34.6595L74.5391 41.1834C74.7215 42.5578 74.8209 43.9652 74.8209 45.3892C74.8209 46.8132 74.7215 48.2207 74.5391 49.595L81.7173 56.119C82.8611 57.1456 83.3087 58.7518 82.7782 60.1923C82.0488 62.1628 81.1702 64.0504 80.159 65.8718L79.3798 67.2131C78.2857 69.0345 77.0589 70.7565 75.7161 72.3792C74.738 73.5714 73.1134 73.9688 71.6546 73.5052L62.4208 70.5744C60.1994 72.2799 57.7459 73.7039 55.1266 74.7802L53.0544 84.235C52.7228 85.7418 51.5624 86.934 50.0372 87.1824C47.7495 87.5632 45.3955 87.7619 42.9917 87.7619C40.5879 87.7619 38.2339 87.5632 35.9462 87.1824C34.421 86.934 33.2606 85.7418 32.929 84.235L30.8568 74.7802C28.2375 73.7039 25.784 72.2799 23.5626 70.5744L14.3454 73.5218C12.8866 73.9854 11.262 73.5714 10.2839 72.3958C8.94108 70.7731 7.71433 69.051 6.6202 67.2296L5.84105 65.8884C4.82981 64.067 3.95119 62.1793 3.22177 60.2089C2.69128 58.7683 3.13888 57.1622 4.28274 56.1356L11.4609 49.6116C11.2785 48.2207 11.1791 46.8132 11.1791 45.3892C11.1791 43.9652 11.2785 42.5578 11.4609 41.1834L4.28274 34.6595C3.13888 33.6328 2.69128 32.0267 3.22177 30.5861C3.95119 28.6157 4.82981 26.728 5.84105 24.9066L6.6202 23.5654C7.71433 21.744 8.94108 20.0219 10.2839 18.3992C11.262 17.207 12.8866 16.8096 14.3454 17.2732L23.5792 20.2041C25.8006 18.4986 28.2541 17.0745 30.8734 15.9983L32.9456 6.54347C33.2772 5.03667 34.4376 3.84447 35.9628 3.5961C38.2505 3.1987 40.6045 3 43.0083 3C45.4121 3 47.7661 3.1987 50.0538 3.57954C51.579 3.82791 52.7394 5.02011 53.071 6.52692L55.1432 15.9817C57.7625 17.058 60.216 18.482 62.4374 20.1875L71.6712 17.2567C73.13 16.7931 74.7546 17.207 75.7327 18.3827C77.0755 20.0054 78.3022 21.7274 79.3964 23.5488L80.1755 24.8901C81.1868 26.7115 82.0654 28.5991 82.7948 30.5696L82.7782 30.5861ZM43.0083 58.6359C46.5256 58.6359 49.8989 57.2402 52.3861 54.756C54.8732 52.2718 56.2705 48.9025 56.2705 45.3892C56.2705 41.876 54.8732 38.5067 52.3861 36.0224C49.8989 33.5382 46.5256 32.1426 43.0083 32.1426C39.4909 32.1426 36.1177 33.5382 33.6305 36.0224C31.1434 38.5067 29.7461 41.876 29.7461 45.3892C29.7461 48.9025 31.1434 52.2718 33.6305 54.756C36.1177 57.2402 39.4909 58.6359 43.0083 58.6359Z" stroke="white" stroke-width="5"/>
</svg>
