<svg width="80" height="72" viewBox="0 0 80 72" fill="none" xmlns="http://www.w3.org/2000/svg">
<path d="M6.6375 6.6323C15.4775 -2.1769 30.8893 -2.23123 39.7402 6.59246C39.8274 6.67939 39.9074 6.77357 39.9837 6.86775C45.0398 2.96301 50.8629 0.0362694 57.3475 0.0217805C60.3331 0.0109926 63.2913 0.589601 66.0513 1.72421C68.8113 2.85881 71.3185 4.52694 73.4281 6.6323C75.46 8.66074 77.1466 10.8522 78.2988 13.5942C79.4547 16.3326 80.0072 19.4513 79.9999 23.2401C79.9999 34.0053 72.5594 44.2779 64.4827 52.4858C56.8568 60.2373 48.1004 66.6993 42.768 70.6294L41.6376 71.4625C41.1662 71.8115 40.5946 72 40.0074 72C39.4201 72 38.8485 71.8115 38.3771 71.4625L37.243 70.6294C31.9143 66.6993 23.1579 60.2373 15.532 52.4858C7.46261 44.2887 0.0329521 34.0307 0.0111429 23.28C-0.0859275 20.2009 0.452068 17.1348 1.59184 14.2713C2.73161 11.4078 4.44892 8.80787 6.6375 6.6323ZM35.8363 10.4066C29.1264 3.76352 17.2113 3.80336 10.505 10.4863C8.82944 12.1506 7.51804 14.1428 6.65346 16.3372C5.78889 18.5316 5.38989 20.8808 5.48161 23.2365C5.48161 31.6835 11.4791 40.5868 19.4358 48.6716C26.5129 55.8653 34.6441 61.9289 40.0092 65.8843C42.6595 63.9435 45.2757 61.9571 47.8568 59.9258L40.0782 52.7756C39.8143 52.533 39.6008 52.2409 39.4501 51.9161C39.2994 51.5914 39.2144 51.2402 39.1999 50.8826C39.1853 50.5251 39.2416 50.1682 39.3655 49.8323C39.4894 49.4965 39.6785 49.1882 39.9219 48.9252C40.1654 48.6621 40.4584 48.4494 40.7844 48.2992C41.1103 48.149 41.4627 48.0643 41.8215 48.0498C42.1803 48.0354 42.5384 48.0915 42.8755 48.2149C43.2125 48.3384 43.5218 48.5268 43.7858 48.7694L52.1278 56.4412C54.3669 54.5577 56.6423 52.5293 58.8523 50.3849L51.001 43.1695C50.4947 42.6726 50.2021 41.999 50.1852 41.291C50.1683 40.5831 50.4283 39.8963 50.9103 39.376C51.3924 38.8556 52.0586 38.5425 52.7681 38.5028C53.4776 38.4631 54.1748 38.7 54.7122 39.1633L62.6653 46.4802C64.66 44.3341 66.5152 42.0631 68.2193 39.6813L66.0929 37.5587L60.0918 31.5748C56.1734 27.6846 49.7797 27.7534 45.7886 31.7306C44.411 33.107 43.0261 34.4762 41.6739 35.8092C37.5302 39.8805 30.9147 39.7103 26.88 35.6534C25.1026 33.8604 23.3179 32.0747 21.5186 30.2853C21.0335 29.8008 20.7491 29.152 20.7222 28.4681C20.6952 27.7842 20.9277 27.1152 21.3732 26.5943C22.2238 25.5945 23.1289 24.5079 24.0812 23.3596C27.4544 19.3028 31.4345 14.5142 35.8363 10.4066ZM71.1854 34.929C73.29 31.017 74.5295 27.0796 74.5295 23.2365C74.5367 19.9801 74.0642 17.6148 73.2573 15.7023C72.4576 13.797 71.2545 12.1743 69.5606 10.4863C67.9612 8.88813 66.0594 7.6221 63.9654 6.76157C61.8715 5.90104 59.627 5.46313 57.362 5.4732C51.3281 5.48769 45.5487 8.91792 40.0237 13.9709C35.7346 17.8974 31.9071 22.4939 28.4358 26.6703L27.1599 28.2025C28.3631 29.4051 29.5698 30.6077 30.7694 31.8175C31.6919 32.7644 32.9538 33.3077 34.2781 33.328C35.6023 33.3484 36.8805 32.8442 37.8319 31.9262C39.1768 30.6041 40.5508 29.2457 41.9211 27.8765C47.9623 21.8528 57.8164 21.6246 63.9484 27.7135C65.9839 29.7347 68.0194 31.7704 69.975 33.7191L71.1854 34.929Z" fill="white"/>
</svg>
