<svg width="86" height="86" viewBox="0 0 86 86" fill="none" xmlns="http://www.w3.org/2000/svg">
<path d="M73.3192 41.0957H68C67.898 41.0957 67.8002 41.0552 67.728 40.9831C67.6559 40.9109 67.6154 40.8131 67.6154 40.7111V25.8572C67.6154 23.8753 66.828 21.9745 65.4266 20.573C64.0251 19.1715 62.1243 18.3842 60.1423 18.3842H45.2885C45.1865 18.3842 45.0886 18.3436 45.0165 18.2715C44.9444 18.1994 44.9038 18.1016 44.9038 17.9995V12.6803C44.9038 7.46108 40.7692 3.09185 35.55 3.00147C34.2855 2.97925 33.0292 3.20909 31.8544 3.67757C30.6797 4.14605 29.61 4.84379 28.7078 5.73008C27.8055 6.61637 27.0889 7.67347 26.5995 8.83969C26.1102 10.0059 25.858 11.2579 25.8577 12.5226V17.9995C25.8577 18.1016 25.8172 18.1994 25.745 18.2715C25.6729 18.3436 25.5751 18.3842 25.4731 18.3842H10.6192C8.60036 18.3902 6.66591 19.1949 5.23835 20.6225C3.81078 22.0501 3.00609 23.9845 3 26.0034V39.538C3 39.64 3.04052 39.7378 3.11265 39.81C3.18478 39.8821 3.28261 39.9226 3.38462 39.9226H8.55962C14.2077 39.9226 18.8827 44.8226 18.9615 50.4707C19.0423 56.2149 14.4404 61.4611 8.71346 61.4611H3.38462C3.28261 61.4611 3.18478 61.5016 3.11265 61.5737C3.04052 61.6459 3 61.7437 3 61.8457V75.3803C3.00609 77.3992 3.81078 79.3336 5.23835 80.7612C6.66591 82.1888 8.60036 82.9935 10.6192 82.9995H24.1538C24.2559 82.9995 24.3537 82.959 24.4258 82.8869C24.4979 82.8148 24.5385 82.7169 24.5385 82.6149V78.5899C24.5385 72.7669 29.2981 67.7534 35.1154 67.6169C40.9038 67.4822 46.0769 71.5226 46.0769 77.2861V82.6149C46.0769 82.7169 46.1174 82.8148 46.1896 82.8869C46.2617 82.959 46.3595 82.9995 46.4615 82.9995H60.1423C62.1243 82.9995 64.0251 82.2122 65.4266 80.8107C66.828 79.4093 67.6154 77.5085 67.6154 75.5265V60.5265C67.6154 60.4245 67.6559 60.3266 67.728 60.2545C67.8002 60.1824 67.898 60.1419 68 60.1419H73.4769C78.7904 60.1419 83 55.7822 83 50.4495C83 45.1169 78.5385 41.0957 73.3192 41.0957Z" stroke="white" stroke-width="5" stroke-linecap="round" stroke-linejoin="round"/>
</svg>
