<svg width="131" height="150" viewBox="0 0 131 150" fill="none" xmlns="http://www.w3.org/2000/svg">
<path d="M5.44183 58.125C4.59865 58.1326 3.76846 57.917 3.03558 57.5C2.49802 57.1978 2.02613 56.7915 1.64751 56.3048C1.26888 55.8181 0.991128 55.2607 0.830502 54.6653C0.669875 54.07 0.6296 53.4486 0.712032 52.8374C0.794464 52.2263 0.997948 51.6378 1.31058 51.1062C7.33558 41.05 25.6668 17.5781 65.6668 17.5781C83.0012 17.5781 98.2043 22.1313 110.832 31.1063C121.226 38.4719 127.051 46.8094 129.826 50.825C130.178 51.3312 130.425 51.9026 130.553 52.5057C130.681 53.1089 130.687 53.7314 130.57 54.3368C130.454 54.9422 130.217 55.5182 129.875 56.0308C129.532 56.5435 129.091 56.9824 128.576 57.3219C127.524 58.0172 126.243 58.2755 125.004 58.0422C123.765 57.8088 122.666 57.1021 121.939 56.0719C116.917 48.85 101.604 26.875 65.6668 26.875C30.5887 26.875 14.7293 47.0969 9.5637 55.7688C9.14865 56.4929 8.54777 57.0931 7.82315 57.5073C7.09852 57.9216 6.27644 58.1348 5.44183 58.125Z" fill="white"/>
<path d="M85.82 150C85.4211 150.005 85.0232 149.96 84.6356 149.866C55.62 142.678 44.7856 113.672 44.345 112.466L44.2762 112.2C44.0387 111.363 38.2168 91.4719 47.1543 79.8219C51.2512 74.5094 57.4825 71.7844 65.7106 71.7844C73.3606 71.7844 78.8793 74.1625 82.6731 79.0844C85.7981 83.1031 87.0481 88.0594 88.2575 92.8344C90.7981 102.778 92.6325 108 103.192 108.537C107.829 108.772 110.876 106.059 112.604 103.75C117.276 97.4531 118.089 87.1875 114.567 78.125C110.042 66.4281 93.9825 44.375 65.6668 44.375C53.5793 44.375 42.4731 48.2594 33.5668 55.5594C26.195 61.6062 20.3543 70.1438 17.5418 78.9188C12.3262 95.2563 19.1668 120.938 19.2325 121.172C19.3922 121.77 19.4306 122.393 19.3455 123.006C19.2604 123.619 19.0534 124.208 18.7368 124.74C18.4202 125.271 18.0004 125.734 17.5021 126.101C17.0039 126.468 16.4372 126.731 15.8356 126.875C14.6202 127.198 13.3265 127.032 12.2318 126.413C11.1371 125.794 10.3285 124.771 9.97933 123.562C9.66683 122.391 2.36058 95 8.38558 76.1187C14.9481 55.6594 35.2012 35.0344 65.6762 35.0344C79.7606 35.0344 93.0668 39.8219 104.173 48.8625C112.773 55.8937 119.798 65.3375 123.473 74.7781C128.145 86.8312 126.892 100.359 120.289 109.197C115.889 115.091 109.623 118.172 102.682 117.837C84.6012 116.931 81.3512 104.309 78.9825 95.1031C76.545 85.6594 74.9856 81.1063 65.6762 81.1063C60.5637 81.1063 56.9731 82.5125 54.7387 85.425C51.6918 89.4094 51.4543 95.6375 51.7918 100.156C52.0134 103.305 52.5473 106.423 53.3856 109.466C54.1293 111.341 63.8137 135.091 87.0075 140.837C87.6069 140.98 88.1722 141.239 88.6705 141.602C89.1687 141.964 89.59 142.422 89.9098 142.948C90.2296 143.475 90.4416 144.06 90.5335 144.669C90.6254 145.278 90.5953 145.899 90.445 146.497C90.1619 147.505 89.5567 148.394 88.7216 149.026C87.8866 149.659 86.8675 150.001 85.82 150Z" fill="white"/>
<path d="M48.5762 147.856C47.9259 147.858 47.2819 147.728 46.6827 147.475C46.0835 147.222 45.5414 146.851 45.0887 146.384C33.4762 134.197 26.9075 120.569 24.4356 103.528V103.438C23.0481 92.1563 25.0793 76.1844 35.0325 65.2031C42.3793 57.1 52.7075 52.9813 65.6762 52.9813C81.0137 52.9813 93.0668 60.1125 100.582 73.5719C106.036 83.35 107.117 93.0937 107.145 93.4937C107.202 94.1105 107.137 94.7324 106.954 95.324C106.77 95.9156 106.472 96.4651 106.075 96.9412C105.679 97.4172 105.193 97.8104 104.644 98.0983C104.096 98.3862 103.496 98.563 102.879 98.6187C101.635 98.7538 100.387 98.394 99.4051 97.617C98.4235 96.8399 97.7868 95.7081 97.6325 94.4656C96.8093 88.6192 94.9174 82.9742 92.0512 77.8125C86.2262 67.5344 77.3637 62.3094 65.6418 62.3094C55.5168 62.3094 47.595 65.3563 42.145 71.3719C34.2887 80.0438 32.77 93.4031 33.8481 102.241C36.0137 117.309 41.8043 129.297 52.0293 140.009C52.4561 140.453 52.7892 140.979 53.0089 141.554C53.2287 142.129 53.3305 142.743 53.3083 143.358C53.2862 143.974 53.1405 144.578 52.88 145.136C52.6195 145.694 52.2494 146.194 51.7918 146.606C50.9106 147.405 49.7655 147.85 48.5762 147.856Z" fill="white"/>
<path d="M102.073 134.431C91.9168 134.431 83.2825 131.619 76.3731 126.028C62.4918 114.844 60.9356 96.6281 60.8668 95.8594C60.769 94.5975 61.1765 93.3485 61.9996 92.3871C62.8227 91.4257 63.994 90.8306 65.2559 90.7328C66.5177 90.635 67.7668 91.0425 68.7282 91.8656C69.6896 92.6887 70.2846 93.86 70.3824 95.1219C70.4168 95.3906 71.8043 110.291 82.5043 118.872C88.8356 123.928 97.2981 125.934 107.726 124.762C108.973 124.611 110.228 124.96 111.218 125.731C112.208 126.503 112.853 127.636 113.011 128.881C113.079 129.497 113.024 130.119 112.849 130.713C112.674 131.307 112.382 131.86 111.992 132.34C111.601 132.82 111.118 133.217 110.572 133.509C110.026 133.8 109.427 133.98 108.811 134.038C106.574 134.298 104.325 134.43 102.073 134.431ZM110.098 10.2469C106.136 7.66875 92.0856 0 65.6668 0C37.9356 0 23.8512 8.47187 20.7356 10.625C20.5298 10.7513 20.3372 10.8979 20.1606 11.0625C20.1419 11.0805 20.1177 11.0916 20.0918 11.0938C19.5943 11.5281 19.1951 12.0636 18.9208 12.6644C18.6465 13.2653 18.5035 13.9177 18.5012 14.5781C18.5097 15.1972 18.6404 15.8086 18.8856 16.3771C19.1309 16.9457 19.4859 17.4602 19.9303 17.8913C20.3748 18.3224 20.8999 18.6616 21.4757 18.8894C22.0514 19.1172 22.6665 19.2291 23.2856 19.2188C24.2779 19.2181 25.2462 18.9138 26.0606 18.3469C26.1949 18.2469 38.3168 9.34062 65.6762 9.34062C93.0356 9.34062 105.223 18.2156 105.354 18.2812C106.186 18.8982 107.197 19.2273 108.232 19.2188C108.852 19.2283 109.467 19.1153 110.043 18.8864C110.619 18.6574 111.144 18.317 111.588 17.8847C112.032 17.4523 112.386 16.9366 112.63 16.367C112.874 15.7974 113.004 15.1853 113.011 14.5656C113.011 13.6375 112.734 12.7304 112.215 11.9609C111.696 11.1913 110.959 10.5945 110.098 10.2469Z" fill="white"/>
</svg>
