<svg width="161" height="100" viewBox="0 0 161 100" fill="none" xmlns="http://www.w3.org/2000/svg">
<path d="M80.6667 70C85.9711 70 91.0582 67.8929 94.8089 64.1421C98.5596 60.3914 100.667 55.3043 100.667 50C100.667 44.6957 98.5596 39.6086 94.8089 35.8579C91.0582 32.1071 85.9711 30 80.6667 30C75.3624 30 70.2753 32.1071 66.5246 35.8579C62.7739 39.6086 60.6667 44.6957 60.6667 50C60.6667 55.3043 62.7739 60.3914 66.5246 64.1421C70.2753 67.8929 75.3624 70 80.6667 70Z" fill="white"/>
<path d="M0.666748 10C0.666748 7.34784 1.72032 4.8043 3.59568 2.92893C5.47104 1.05357 8.01458 0 10.6667 0H150.667C153.319 0 155.862 1.05357 157.738 2.92893C159.613 4.8043 160.667 7.34784 160.667 10V90C160.667 92.6522 159.613 95.1957 157.738 97.0711C155.862 98.9464 153.319 100 150.667 100H10.6667C8.01458 100 5.47104 98.9464 3.59568 97.0711C1.72032 95.1957 0.666748 92.6522 0.666748 90V10ZM30.6667 10C30.6667 15.3043 28.5596 20.3914 24.8089 24.1421C21.0582 27.8929 15.9711 30 10.6667 30V70C15.9711 70 21.0582 72.1071 24.8089 75.8579C28.5596 79.6086 30.6667 84.6957 30.6667 90H130.667C130.667 84.6957 132.774 79.6086 136.525 75.8579C140.275 72.1071 145.362 70 150.667 70V30C145.362 30 140.275 27.8929 136.525 24.1421C132.774 20.3914 130.667 15.3043 130.667 10H30.6667Z" fill="white"/>
<path d="M80.6667 70C85.9711 70 91.0582 67.8929 94.8089 64.1421C98.5596 60.3914 100.667 55.3043 100.667 50C100.667 44.6957 98.5596 39.6086 94.8089 35.8579C91.0582 32.1071 85.9711 30 80.6667 30C75.3624 30 70.2753 32.1071 66.5246 35.8579C62.7739 39.6086 60.6667 44.6957 60.6667 50C60.6667 55.3043 62.7739 60.3914 66.5246 64.1421C70.2753 67.8929 75.3624 70 80.6667 70Z" stroke="black"/>
<path d="M0.666748 10C0.666748 7.34784 1.72032 4.8043 3.59568 2.92893C5.47104 1.05357 8.01458 0 10.6667 0H150.667C153.319 0 155.862 1.05357 157.738 2.92893C159.613 4.8043 160.667 7.34784 160.667 10V90C160.667 92.6522 159.613 95.1957 157.738 97.0711C155.862 98.9464 153.319 100 150.667 100H10.6667C8.01458 100 5.47104 98.9464 3.59568 97.0711C1.72032 95.1957 0.666748 92.6522 0.666748 90V10ZM30.6667 10C30.6667 15.3043 28.5596 20.3914 24.8089 24.1421C21.0582 27.8929 15.9711 30 10.6667 30V70C15.9711 70 21.0582 72.1071 24.8089 75.8579C28.5596 79.6086 30.6667 84.6957 30.6667 90H130.667C130.667 84.6957 132.774 79.6086 136.525 75.8579C140.275 72.1071 145.362 70 150.667 70V30C145.362 30 140.275 27.8929 136.525 24.1421C132.774 20.3914 130.667 15.3043 130.667 10H30.6667Z" stroke="black"/>
</svg>
