<svg width="111" height="151" viewBox="0 0 111 151" fill="none" xmlns="http://www.w3.org/2000/svg">
<path d="M58.6667 53C58.6667 54.1046 59.5622 55 60.6667 55H108.263C109.86 55 110.813 56.7803 109.927 58.1094L48.9975 149.504C47.8999 151.15 45.3334 150.373 45.3334 148.394V97C45.3334 95.8954 44.438 95 43.3334 95H2.19913C0.644541 95 -0.315687 93.3041 0.484143 91.971L54.9518 1.19164C55.9954 -0.547743 58.6667 0.192188 58.6667 2.22063V53ZM47.3334 68.3333C46.2288 68.3333 45.3334 67.4379 45.3334 66.3333V50.3582C45.3334 48.3297 42.6621 47.5898 41.6184 49.3292L24.0333 78.6377C23.2335 79.9707 24.1937 81.6667 25.7483 81.6667H56.6667C57.7713 81.6667 58.6667 82.5621 58.6667 83.6667V104.357C58.6667 106.336 61.2332 107.113 62.3308 105.467L85.0138 71.4427C85.8999 70.1136 84.9471 68.3333 83.3497 68.3333H47.3334Z" fill="white"/>
</svg>
