<svg width="121" height="120" viewBox="0 0 121 120" fill="none" xmlns="http://www.w3.org/2000/svg">
<path d="M71.3334 120C69.1243 120 67.3334 118.209 67.3334 116V57.3333C67.3334 55.1242 69.1243 53.3333 71.3334 53.3333H116.667C118.876 53.3333 120.667 55.1242 120.667 57.3333V116C120.667 118.209 118.876 120 116.667 120H71.3334ZM4.66674 66.6667C2.45761 66.6667 0.666748 64.8758 0.666748 62.6667V4C0.666748 1.79086 2.45761 0 4.66675 0H50.0001C52.2092 0 54.0001 1.79086 54.0001 4V62.6667C54.0001 64.8758 52.2092 66.6667 50.0001 66.6667H4.66674ZM36.6668 53.3333C38.8759 53.3333 40.6667 51.5425 40.6667 49.3333V17.3333C40.6667 15.1242 38.8759 13.3333 36.6667 13.3333H18.0001C15.7909 13.3333 14.0001 15.1242 14.0001 17.3333V49.3333C14.0001 51.5425 15.7909 53.3333 18.0001 53.3333H36.6668ZM4.66674 120C2.45761 120 0.666748 118.209 0.666748 116V84C0.666748 81.7909 2.45761 80 4.66675 80H50.0001C52.2092 80 54.0001 81.7909 54.0001 84V116C54.0001 118.209 52.2092 120 50.0001 120H4.66674ZM14.0001 102.667C14.0001 104.876 15.7909 106.667 18.0001 106.667H36.6668C38.8759 106.667 40.6667 104.876 40.6667 102.667V97.3333C40.6667 95.1242 38.8759 93.3333 36.6667 93.3333H18.0001C15.7909 93.3333 14.0001 95.1242 14.0001 97.3333V102.667ZM80.6667 102.667C80.6667 104.876 82.4576 106.667 84.6667 106.667H103.333C105.543 106.667 107.333 104.876 107.333 102.667V70.6667C107.333 68.4575 105.543 66.6667 103.333 66.6667H84.6667C82.4576 66.6667 80.6667 68.4575 80.6667 70.6667V102.667ZM67.3334 4C67.3334 1.79086 69.1243 0 71.3334 0H116.667C118.876 0 120.667 1.79086 120.667 4V36C120.667 38.2091 118.876 40 116.667 40H71.3334C69.1243 40 67.3334 38.2091 67.3334 36V4ZM84.6667 13.3333C82.4576 13.3333 80.6667 15.1242 80.6667 17.3333V22.6667C80.6667 24.8758 82.4576 26.6667 84.6667 26.6667H103.333C105.543 26.6667 107.333 24.8758 107.333 22.6667V17.3333C107.333 15.1242 105.543 13.3333 103.333 13.3333H84.6667Z" fill="white"/>
</svg>
