<svg width="69" height="70" viewBox="0 0 69 70" fill="none" xmlns="http://www.w3.org/2000/svg">
<path d="M0 37.2136H40.9812M61.0188 37.2136H68M28.3333 30.0862V22.9587C28.3333 22.9587 24.0833 20.1077 17 20.1077C9.91667 20.1077 5.66667 22.9587 5.66667 22.9587V30.0862M45.3333 70V54.3196H35.4167V53.6068L35.6206 53.1789C40.1509 43.605 42.5012 33.1347 42.5 22.5308V21.5959C45.2222 20.5929 48.101 20.0877 51 20.1047C54.6495 20.1047 57.5479 20.8632 59.5 21.5959V22.5308C59.5 33.1366 61.8518 43.6026 66.3794 53.1762L66.5833 53.6038V54.3165H56.6667V70M16.5751 14.4057C16.5751 14.4057 12.0417 11.5548 12.0417 7.99103C12.0417 4.15456 16.1688 1.75691 19.4707 3.67515C21.003 4.56517 21.9469 6.21037 21.9469 7.99103C21.9469 11.5548 17.4249 14.4057 17.4249 14.4057H16.5751ZM50.5751 14.4057C50.5751 14.4057 46.0417 11.5548 46.0417 7.99103C46.0417 4.15456 50.1688 1.75691 53.4707 3.67515C55.003 4.56517 55.9469 6.21037 55.9469 7.99103C55.9469 11.5548 51.4249 14.4057 51.4249 14.4057H50.5751Z" stroke="white" stroke-width="4.49301"/>
</svg>
