<svg width="82" height="76" viewBox="0 0 82 76" fill="none" xmlns="http://www.w3.org/2000/svg">
<path d="M58.7394 3H74.3027C75.4463 3 76.4222 3.82676 76.6101 4.95476L79.3573 21.4364C79.4692 22.1082 79.2828 22.798 78.7732 23.2498C77.4944 24.3834 74.6353 26.3935 70.4362 26.3935C64.5878 26.3935 60.6889 22.4946 60.6889 22.4946M58.7394 3L60.6889 22.4946M58.7394 3H41.1943M60.6889 22.4946C60.6889 22.4946 56.79 26.3935 50.9416 26.3935C45.0932 26.3935 41.1943 22.4946 41.1943 22.4946M41.1943 22.4946V3M41.1943 22.4946C41.1943 22.4946 37.2954 26.3935 31.447 26.3935C25.5986 26.3935 21.6997 22.4946 21.6997 22.4946M41.1943 3H23.6491M21.6997 22.4946L23.6491 3M21.6997 22.4946C21.6997 22.4946 17.8008 26.3935 11.9524 26.3935C7.75315 26.3935 4.894 24.3834 3.61547 23.2498C3.10588 22.798 2.91939 22.1082 3.03133 21.4365L5.77831 4.95476C5.96631 3.82676 6.94225 3 8.0858 3H23.6491M6.13021 26.3935V65.3826C6.13021 69.6894 9.62141 73.1805 13.928 73.1805H68.5128C72.8196 73.1805 76.3106 69.6894 76.3106 65.3826V26.3935M52.2672 73.1805V49.787C52.2672 45.4802 48.7761 41.9891 44.4693 41.9891H36.6715C32.3649 41.9891 28.8737 45.4802 28.8737 49.787V73.1805" stroke="white" stroke-width="4.81405" stroke-miterlimit="16"/>
</svg>
